<?xml version="1.0" encoding="utf-8" standalone="no"?>
<!DOCTYPE svg PUBLIC "-//W3C//DTD SVG 1.1//EN"
  "http://www.w3.org/Graphics/SVG/1.1/DTD/svg11.dtd">
<svg xmlns:xlink="http://www.w3.org/1999/xlink" width="135.27pt" height="223.704pt" viewBox="0 0 135.27 223.704" xmlns="http://www.w3.org/2000/svg" version="1.1">
 <metadata>
  <rdf:RDF xmlns:dc="http://purl.org/dc/elements/1.1/" xmlns:cc="http://creativecommons.org/ns#" xmlns:rdf="http://www.w3.org/1999/02/22-rdf-syntax-ns#">
   <cc:Work>
    <dc:type rdf:resource="http://purl.org/dc/dcmitype/StillImage"/>
    <dc:date>2023-04-02T10:52:40.770707</dc:date>
    <dc:format>image/svg+xml</dc:format>
    <dc:creator>
     <cc:Agent>
      <dc:title>Matplotlib v3.5.1, https://matplotlib.org/</dc:title>
     </cc:Agent>
    </dc:creator>
   </cc:Work>
  </rdf:RDF>
 </metadata>
 <defs>
  <style type="text/css">*{stroke-linejoin: round; stroke-linecap: butt}</style>
 </defs>
 <g id="figure_1">
  <g id="patch_1">
   <path d="M 0 223.704 
L 135.27 223.704 
L 135.27 0 
L 0 0 
L 0 223.704 
z
" style="fill: none"/>
  </g>
  <g id="axes_1">
   <g id="line2d_1">
    <path d="M 21.735 193.86 
L 21.735 206.1 
L 14.085 206.1 
L 29.385 206.1 
M 16.38 209.772 
L 27.09 209.772 
M 20.205 213.444 
L 23.265 213.444 
" clip-path="url(#p368a83a818)" style="fill: none; stroke: #000000; stroke-width: 2; stroke-linecap: round"/>
   </g>
   <g id="line2d_2">
    <path d="M 21.735 193.86 
L 21.735 156.56625 
M 21.735 139.35375 
L 21.735 102.06 
" clip-path="url(#p368a83a818)" style="fill: none; stroke: #000000; stroke-width: 2; stroke-linecap: round"/>
   </g>
   <g id="line2d_3">
    <path d="M 33.21 139.35375 
L 10.26 139.35375 
" clip-path="url(#p368a83a818)" style="fill: none; stroke: #000000; stroke-width: 2; stroke-linecap: round"/>
   </g>
   <g id="line2d_4">
    <path d="M 27.4725 145.09125 
L 15.9975 145.09125 
" clip-path="url(#p368a83a818)" style="fill: none; stroke: #000000; stroke-width: 2; stroke-linecap: round"/>
   </g>
   <g id="line2d_5">
    <path d="M 33.21 150.82875 
L 10.26 150.82875 
" clip-path="url(#p368a83a818)" style="fill: none; stroke: #000000; stroke-width: 2; stroke-linecap: round"/>
   </g>
   <g id="line2d_6">
    <path d="M 27.4725 156.56625 
L 15.9975 156.56625 
" clip-path="url(#p368a83a818)" style="fill: none; stroke: #000000; stroke-width: 2; stroke-linecap: round"/>
   </g>
   <g id="line2d_7">
    <path d="M 21.735 102.06 
L 21.735 71.46 
L 14.085 68.91 
L 29.385 63.81 
L 14.085 58.71 
L 29.385 53.61 
L 14.085 48.51 
L 29.385 43.41 
L 21.735 40.86 
L 21.735 10.26 
" clip-path="url(#p368a83a818)" style="fill: none; stroke: #000000; stroke-width: 2; stroke-linecap: round"/>
   </g>
   <g id="line2d_8">
    <path d="M 21.735 10.26 
L 67.635 10.26 
L 113.535 10.26 
" clip-path="url(#p368a83a818)" style="fill: none; stroke: #000000; stroke-width: 2; stroke-linecap: round"/>
   </g>
   <g id="line2d_9">
    <path d="M 113.535 10.26 
L 113.535 40.86 
L 121.185 43.41 
L 105.885 48.51 
L 121.185 53.61 
L 105.885 58.71 
L 121.185 63.81 
L 105.885 68.91 
L 113.535 71.46 
L 113.535 102.06 
" clip-path="url(#p368a83a818)" style="fill: none; stroke: #000000; stroke-width: 2; stroke-linecap: round"/>
   </g>
   <g id="line2d_10">
    <path d="M 113.535 102.06 
L 113.535 139.35375 
M 113.535 156.56625 
L 113.535 193.86 
" clip-path="url(#p368a83a818)" style="fill: none; stroke: #000000; stroke-width: 2; stroke-linecap: round"/>
   </g>
   <g id="line2d_11">
    <path d="M 125.01 139.35375 
L 102.06 139.35375 
" clip-path="url(#p368a83a818)" style="fill: none; stroke: #000000; stroke-width: 2; stroke-linecap: round"/>
   </g>
   <g id="line2d_12">
    <path d="M 119.2725 145.09125 
L 107.7975 145.09125 
" clip-path="url(#p368a83a818)" style="fill: none; stroke: #000000; stroke-width: 2; stroke-linecap: round"/>
   </g>
   <g id="line2d_13">
    <path d="M 125.01 150.82875 
L 102.06 150.82875 
" clip-path="url(#p368a83a818)" style="fill: none; stroke: #000000; stroke-width: 2; stroke-linecap: round"/>
   </g>
   <g id="line2d_14">
    <path d="M 119.2725 156.56625 
L 107.7975 156.56625 
" clip-path="url(#p368a83a818)" style="fill: none; stroke: #000000; stroke-width: 2; stroke-linecap: round"/>
   </g>
   <g id="line2d_15">
    <path d="M 113.535 193.86 
L 67.635 193.86 
L 21.735 193.86 
" clip-path="url(#p368a83a818)" style="fill: none; stroke: #000000; stroke-width: 2; stroke-linecap: round"/>
   </g>
  </g>
 </g>
 <defs>
  <clipPath id="p368a83a818">
   <rect x="7.2" y="7.2" width="120.87" height="209.304"/>
  </clipPath>
 </defs>
</svg>